<svg width="54" height="50" viewBox="0 0 54 50" fill="none" xmlns="http://www.w3.org/2000/svg">
<path d="M13.2188 49.5566C12.4219 49.5566 11.8711 49.0996 11.5664 48.1855C11.4492 47.8223 11.3906 47.3828 11.3906 46.8672C11.3906 45.7305 11.6836 44.248 12.2695 42.4199C12.9961 40.3105 13.998 38.5234 15.2754 37.0586C16.5527 35.5938 18.0527 34.2988 19.7754 33.1738C21.498 32.0488 23.3906 30.9473 25.4531 29.8691C25.8164 29.6816 26.1738 29.4883 26.5254 29.2891C30.8613 20.207 33.0996 12.8711 33.2402 7.28125C33.2402 5.00781 32.666 3.38477 31.5176 2.41211C30.3809 1.42773 28.7285 0.935547 26.5605 0.935547C24.7676 0.970703 22.7051 1.28711 20.373 1.88477C18.123 2.4707 15.7676 3.2793 13.3066 4.31055C10.8574 5.3418 8.58984 6.55469 6.50391 7.94922C4.41797 9.33203 2.88867 10.75 1.91602 12.2031C0.943359 13.6562 0.457031 15.0449 0.457031 16.3691C0.457031 18.5254 1.52344 20.3652 3.65625 21.8887C6.50391 23.9277 10.541 25.5039 15.7676 26.6172C17.9121 27.0742 19.7461 27.3965 21.2695 27.584C21.4688 27.6074 21.6504 27.6191 21.8145 27.6191C22.1074 27.6191 22.5059 27.5605 23.0098 27.4434C23.2793 27.3496 23.5664 27.3027 23.8711 27.3027C24.1875 27.3027 24.3457 27.3965 24.3457 27.584C24.3457 27.8418 24.0762 28.041 23.5371 28.1816C23.3145 28.2051 23.0918 28.2168 22.8691 28.2168C22.4473 28.2168 22.002 28.1699 21.5332 28.0762C17.1387 27.5488 12.9668 26.5645 9.01758 25.123C3.99023 23.2949 1.05469 20.9395 0.210938 18.0566C0.0703125 17.4707 0 16.8965 0 16.334C0 15.0215 0.386719 13.7559 1.16016 12.5371C2.27344 10.8027 3.87891 9.21484 5.97656 7.77344C8.07422 6.33203 10.3711 5.07813 12.8672 4.01172C15.3633 2.94531 17.7656 2.11328 20.0742 1.51562C22.3945 0.90625 24.3164 0.578125 25.8398 0.53125C26.2734 0.507813 26.6895 0.496094 27.0879 0.496094C28.459 0.496094 29.6602 0.619141 30.6914 0.865234C32.0391 1.18164 33.0234 1.85547 33.6445 2.88672C34.2656 3.91797 34.5762 5.34766 34.5762 7.17578C34.4355 12.7773 32.4141 19.791 28.5117 28.2168C30.0469 27.3613 31.5176 26.418 32.9238 25.3867C34.3301 24.3555 35.6074 23.1484 36.7559 21.7656C36.8027 21.707 36.8555 21.6777 36.9141 21.6777C37.0664 21.6777 37.1426 21.7598 37.1426 21.9238C37.1426 21.9707 37.125 22.0176 37.0898 22.0645C35.8594 23.541 34.4824 24.8301 32.959 25.9316C31.4355 27.0215 29.8477 28.0117 28.1953 28.9023C27.1758 31.1641 25.7578 33.9531 23.9414 37.2695C22.125 40.5977 20.2441 43.4922 18.2988 45.9531C16.6582 47.9102 15.457 49 14.6953 49.2227C13.9453 49.4453 13.4531 49.5566 13.2188 49.5566ZM12.9199 48.5547C13.9277 48.5547 15.3809 47.3945 17.2793 45.0742C20.3027 41.2188 23.2793 36.1855 26.209 29.9746C23.8535 31.1934 21.8027 32.3711 20.0566 33.5078C18.3691 34.6094 16.8984 35.875 15.6445 37.3047C14.4023 38.7461 13.4238 40.4922 12.709 42.543C12.123 44.3242 11.8301 45.7305 11.8301 46.7617C11.8301 47.957 12.1934 48.5547 12.9199 48.5547ZM44.1211 28.6211C43.3477 28.6211 42.8379 28.3457 42.5918 27.7949C42.4043 27.3496 42.3105 26.8516 42.3105 26.3008C42.3105 26.043 42.334 25.7676 42.3809 25.4746C42.5215 24.5723 42.6973 23.8105 42.9082 23.1895L42.6973 23.541C42.0176 24.7715 41.4727 25.3867 41.0625 25.3867C40.7812 25.375 40.6113 25.1582 40.5527 24.7363C40.4941 24.3848 40.4648 24.0684 40.4648 23.7871C40.4648 23.2246 40.5293 22.4863 40.6582 21.5723C40.7168 21.1621 40.7461 20.875 40.7461 20.7109C40.7461 20.418 40.6992 20.2715 40.6055 20.2715C40.3125 20.2715 39.5273 21.6777 38.25 24.4902C37.6875 25.709 37.3652 26.3711 37.2832 26.4766C37.1543 26.6406 36.9961 26.7227 36.8086 26.7227C36.5039 26.7227 36.2871 26.5938 36.1582 26.3359C36.0527 26.1602 36 25.9551 36 25.7207C36 25.4277 36.1523 24.6543 36.457 23.4004C36.7148 22.3223 36.8438 21.6602 36.8438 21.4141C36.8438 21.3438 36.8379 21.291 36.8262 21.2559C36.709 21.1152 36.6504 20.957 36.6504 20.7812C36.6504 20.6875 36.6738 20.582 36.7207 20.4648C36.8965 19.9844 37.1602 19.7441 37.5117 19.7441C37.6406 19.7441 37.7695 19.8086 37.8984 19.9375C38.0859 20.207 38.1797 20.5879 38.1797 21.0801C38.1797 21.7832 37.9102 23.1602 37.3711 25.2109C37.7344 24.5781 38.0977 23.8574 38.4609 23.0488C39.5977 20.4355 40.5527 19.1289 41.3262 19.1289C41.7949 19.1289 42.0352 19.7207 42.0469 20.9043C42.0234 21.6895 41.9473 22.4922 41.8184 23.3125L41.7305 24.0684C42.668 22.8613 43.4766 21.5723 44.1562 20.2012C44.2266 20.084 44.3086 20.0254 44.4023 20.0254C44.5781 20.0254 44.7012 20.1367 44.7715 20.3594C44.8184 20.4883 44.8418 20.5996 44.8418 20.6934C44.8418 20.7871 44.8184 20.8809 44.7715 20.9746C44.6074 21.3027 44.3789 21.8418 44.0859 22.5918C43.793 23.3418 43.5703 24.0566 43.418 24.7363C43.2773 25.416 43.207 25.9609 43.207 26.3711C43.207 26.6523 43.2305 26.916 43.2773 27.1621C43.418 27.7598 43.834 28.0645 44.5254 28.0762C45.4043 28.0059 46.3828 27.584 47.4609 26.8105C48.5508 26.0371 49.5762 25.1641 50.5371 24.1914C51.5098 23.2188 52.2539 22.4102 52.7695 21.7656C52.8281 21.707 52.8809 21.6777 52.9277 21.6777C53.0918 21.6777 53.1738 21.7539 53.1738 21.9062C53.1738 21.9531 53.1562 22 53.1211 22.0469C52.5 22.8203 51.709 23.6816 50.748 24.6309C49.7988 25.5801 48.7793 26.4355 47.6895 27.1973C46.5996 27.9473 45.5449 28.416 44.5254 28.6035L44.1211 28.6211Z" fill="#B29557"/>
</svg>
