<svg width="99" height="99" viewBox="0 0 99 99" fill="none" xmlns="http://www.w3.org/2000/svg">
<g id="QR Code" clip-path="url(#clip0_18_608)">
<path id="Vector" d="M99 0H0V99H99V0Z" fill="white"/>
<g id="Vector_2">
<path d="M9 6H6V9H9V6Z" fill="black"/>
<path d="M12 6H9V9H12V6Z" fill="black"/>
<path d="M15 6H12V9H15V6Z" fill="black"/>
<path d="M18 6H15V9H18V6Z" fill="black"/>
<path d="M21 6H18V9H21V6Z" fill="black"/>
<path d="M24 6H21V9H24V6Z" fill="black"/>
<path d="M27 6H24V9H27V6Z" fill="black"/>
<path d="M33 6H30V9H33V6Z" fill="black"/>
<path d="M36 6H33V9H36V6Z" fill="black"/>
<path d="M39 6H36V9H39V6Z" fill="black"/>
<path d="M42 6H39V9H42V6Z" fill="black"/>
<path d="M48 6H45V9H48V6Z" fill="black"/>
<path d="M54 6H51V9H54V6Z" fill="black"/>
<path d="M57 6H54V9H57V6Z" fill="black"/>
<path d="M63 6H60V9H63V6Z" fill="black"/>
<path d="M75 6H72V9H75V6Z" fill="black"/>
<path d="M78 6H75V9H78V6Z" fill="black"/>
<path d="M81 6H78V9H81V6Z" fill="black"/>
<path d="M84 6H81V9H84V6Z" fill="black"/>
<path d="M87 6H84V9H87V6Z" fill="black"/>
<path d="M90 6H87V9H90V6Z" fill="black"/>
<path d="M93 6H90V9H93V6Z" fill="black"/>
<path d="M9 9H6V12H9V9Z" fill="black"/>
<path d="M27 9H24V12H27V9Z" fill="black"/>
<path d="M36 9H33V12H36V9Z" fill="black"/>
<path d="M42 9H39V12H42V9Z" fill="black"/>
<path d="M45 9H42V12H45V9Z" fill="black"/>
<path d="M48 9H45V12H48V9Z" fill="black"/>
<path d="M51 9H48V12H51V9Z" fill="black"/>
<path d="M69 9H66V12H69V9Z" fill="black"/>
<path d="M75 9H72V12H75V9Z" fill="black"/>
<path d="M93 9H90V12H93V9Z" fill="black"/>
<path d="M9 12H6V15H9V12Z" fill="black"/>
<path d="M15 12H12V15H15V12Z" fill="black"/>
<path d="M18 12H15V15H18V12Z" fill="black"/>
<path d="M21 12H18V15H21V12Z" fill="black"/>
<path d="M27 12H24V15H27V12Z" fill="black"/>
<path d="M33 12H30V15H33V12Z" fill="black"/>
<path d="M36 12H33V15H36V12Z" fill="black"/>
<path d="M39 12H36V15H39V12Z" fill="black"/>
<path d="M45 12H42V15H45V12Z" fill="black"/>
<path d="M51 12H48V15H51V12Z" fill="black"/>
<path d="M54 12H51V15H54V12Z" fill="black"/>
<path d="M63 12H60V15H63V12Z" fill="black"/>
<path d="M69 12H66V15H69V12Z" fill="black"/>
<path d="M75 12H72V15H75V12Z" fill="black"/>
<path d="M81 12H78V15H81V12Z" fill="black"/>
<path d="M84 12H81V15H84V12Z" fill="black"/>
<path d="M87 12H84V15H87V12Z" fill="black"/>
<path d="M93 12H90V15H93V12Z" fill="black"/>
<path d="M9 15H6V18H9V15Z" fill="black"/>
<path d="M15 15H12V18H15V15Z" fill="black"/>
<path d="M18 15H15V18H18V15Z" fill="black"/>
<path d="M21 15H18V18H21V15Z" fill="black"/>
<path d="M27 15H24V18H27V15Z" fill="black"/>
<path d="M33 15H30V18H33V15Z" fill="black"/>
<path d="M39 15H36V18H39V15Z" fill="black"/>
<path d="M42 15H39V18H42V15Z" fill="black"/>
<path d="M45 15H42V18H45V15Z" fill="black"/>
<path d="M48 15H45V18H48V15Z" fill="black"/>
<path d="M51 15H48V18H51V15Z" fill="black"/>
<path d="M54 15H51V18H54V15Z" fill="black"/>
<path d="M63 15H60V18H63V15Z" fill="black"/>
<path d="M66 15H63V18H66V15Z" fill="black"/>
<path d="M69 15H66V18H69V15Z" fill="black"/>
<path d="M75 15H72V18H75V15Z" fill="black"/>
<path d="M81 15H78V18H81V15Z" fill="black"/>
<path d="M84 15H81V18H84V15Z" fill="black"/>
<path d="M87 15H84V18H87V15Z" fill="black"/>
<path d="M93 15H90V18H93V15Z" fill="black"/>
<path d="M9 18H6V21H9V18Z" fill="black"/>
<path d="M15 18H12V21H15V18Z" fill="black"/>
<path d="M18 18H15V21H18V18Z" fill="black"/>
<path d="M21 18H18V21H21V18Z" fill="black"/>
<path d="M27 18H24V21H27V18Z" fill="black"/>
<path d="M36 18H33V21H36V18Z" fill="black"/>
<path d="M39 18H36V21H39V18Z" fill="black"/>
<path d="M45 18H42V21H45V18Z" fill="black"/>
<path d="M57 18H54V21H57V18Z" fill="black"/>
<path d="M60 18H57V21H60V18Z" fill="black"/>
<path d="M75 18H72V21H75V18Z" fill="black"/>
<path d="M81 18H78V21H81V18Z" fill="black"/>
<path d="M84 18H81V21H84V18Z" fill="black"/>
<path d="M87 18H84V21H87V18Z" fill="black"/>
<path d="M93 18H90V21H93V18Z" fill="black"/>
<path d="M9 21H6V24H9V21Z" fill="black"/>
<path d="M27 21H24V24H27V21Z" fill="black"/>
<path d="M33 21H30V24H33V21Z" fill="black"/>
<path d="M36 21H33V24H36V21Z" fill="black"/>
<path d="M39 21H36V24H39V21Z" fill="black"/>
<path d="M45 21H42V24H45V21Z" fill="black"/>
<path d="M48 21H45V24H48V21Z" fill="black"/>
<path d="M51 21H48V24H51V21Z" fill="black"/>
<path d="M54 21H51V24H54V21Z" fill="black"/>
<path d="M57 21H54V24H57V21Z" fill="black"/>
<path d="M60 21H57V24H60V21Z" fill="black"/>
<path d="M66 21H63V24H66V21Z" fill="black"/>
<path d="M69 21H66V24H69V21Z" fill="black"/>
<path d="M75 21H72V24H75V21Z" fill="black"/>
<path d="M93 21H90V24H93V21Z" fill="black"/>
<path d="M9 24H6V27H9V24Z" fill="black"/>
<path d="M12 24H9V27H12V24Z" fill="black"/>
<path d="M15 24H12V27H15V24Z" fill="black"/>
<path d="M18 24H15V27H18V24Z" fill="black"/>
<path d="M21 24H18V27H21V24Z" fill="black"/>
<path d="M24 24H21V27H24V24Z" fill="black"/>
<path d="M27 24H24V27H27V24Z" fill="black"/>
<path d="M33 24H30V27H33V24Z" fill="black"/>
<path d="M39 24H36V27H39V24Z" fill="black"/>
<path d="M45 24H42V27H45V24Z" fill="black"/>
<path d="M51 24H48V27H51V24Z" fill="black"/>
<path d="M57 24H54V27H57V24Z" fill="black"/>
<path d="M63 24H60V27H63V24Z" fill="black"/>
<path d="M69 24H66V27H69V24Z" fill="black"/>
<path d="M75 24H72V27H75V24Z" fill="black"/>
<path d="M78 24H75V27H78V24Z" fill="black"/>
<path d="M81 24H78V27H81V24Z" fill="black"/>
<path d="M84 24H81V27H84V24Z" fill="black"/>
<path d="M87 24H84V27H87V24Z" fill="black"/>
<path d="M90 24H87V27H90V24Z" fill="black"/>
<path d="M93 24H90V27H93V24Z" fill="black"/>
<path d="M33 27H30V30H33V27Z" fill="black"/>
<path d="M39 27H36V30H39V27Z" fill="black"/>
<path d="M42 27H39V30H42V27Z" fill="black"/>
<path d="M45 27H42V30H45V27Z" fill="black"/>
<path d="M57 27H54V30H57V27Z" fill="black"/>
<path d="M9 30H6V33H9V30Z" fill="black"/>
<path d="M12 30H9V33H12V30Z" fill="black"/>
<path d="M18 30H15V33H18V30Z" fill="black"/>
<path d="M27 30H24V33H27V30Z" fill="black"/>
<path d="M30 30H27V33H30V30Z" fill="black"/>
<path d="M39 30H36V33H39V30Z" fill="black"/>
<path d="M45 30H42V33H45V30Z" fill="black"/>
<path d="M51 30H48V33H51V30Z" fill="black"/>
<path d="M57 30H54V33H57V30Z" fill="black"/>
<path d="M60 30H57V33H60V30Z" fill="black"/>
<path d="M72 30H69V33H72V30Z" fill="black"/>
<path d="M75 30H72V33H75V30Z" fill="black"/>
<path d="M78 30H75V33H78V30Z" fill="black"/>
<path d="M84 30H81V33H84V30Z" fill="black"/>
<path d="M87 30H84V33H87V30Z" fill="black"/>
<path d="M93 30H90V33H93V30Z" fill="black"/>
<path d="M12 33H9V36H12V33Z" fill="black"/>
<path d="M15 33H12V36H15V33Z" fill="black"/>
<path d="M21 33H18V36H21V33Z" fill="black"/>
<path d="M24 33H21V36H24V33Z" fill="black"/>
<path d="M30 33H27V36H30V33Z" fill="black"/>
<path d="M33 33H30V36H33V33Z" fill="black"/>
<path d="M36 33H33V36H36V33Z" fill="black"/>
<path d="M48 33H45V36H48V33Z" fill="black"/>
<path d="M54 33H51V36H54V33Z" fill="black"/>
<path d="M57 33H54V36H57V33Z" fill="black"/>
<path d="M69 33H66V36H69V33Z" fill="black"/>
<path d="M75 33H72V36H75V33Z" fill="black"/>
<path d="M84 33H81V36H84V33Z" fill="black"/>
<path d="M9 36H6V39H9V36Z" fill="black"/>
<path d="M15 36H12V39H15V36Z" fill="black"/>
<path d="M21 36H18V39H21V36Z" fill="black"/>
<path d="M27 36H24V39H27V36Z" fill="black"/>
<path d="M39 36H36V39H39V36Z" fill="black"/>
<path d="M48 36H45V39H48V36Z" fill="black"/>
<path d="M63 36H60V39H63V36Z" fill="black"/>
<path d="M66 36H63V39H66V36Z" fill="black"/>
<path d="M69 36H66V39H69V36Z" fill="black"/>
<path d="M72 36H69V39H72V36Z" fill="black"/>
<path d="M75 36H72V39H75V36Z" fill="black"/>
<path d="M12 39H9V42H12V39Z" fill="black"/>
<path d="M15 39H12V42H15V39Z" fill="black"/>
<path d="M21 39H18V42H21V39Z" fill="black"/>
<path d="M24 39H21V42H24V39Z" fill="black"/>
<path d="M30 39H27V42H30V39Z" fill="black"/>
<path d="M36 39H33V42H36V39Z" fill="black"/>
<path d="M39 39H36V42H39V39Z" fill="black"/>
<path d="M45 39H42V42H45V39Z" fill="black"/>
<path d="M48 39H45V42H48V39Z" fill="black"/>
<path d="M51 39H48V42H51V39Z" fill="black"/>
<path d="M63 39H60V42H63V39Z" fill="black"/>
<path d="M69 39H66V42H69V39Z" fill="black"/>
<path d="M72 39H69V42H72V39Z" fill="black"/>
<path d="M78 39H75V42H78V39Z" fill="black"/>
<path d="M84 39H81V42H84V39Z" fill="black"/>
<path d="M90 39H87V42H90V39Z" fill="black"/>
<path d="M93 39H90V42H93V39Z" fill="black"/>
<path d="M9 42H6V45H9V42Z" fill="black"/>
<path d="M12 42H9V45H12V42Z" fill="black"/>
<path d="M21 42H18V45H21V42Z" fill="black"/>
<path d="M24 42H21V45H24V42Z" fill="black"/>
<path d="M27 42H24V45H27V42Z" fill="black"/>
<path d="M42 42H39V45H42V42Z" fill="black"/>
<path d="M45 42H42V45H45V42Z" fill="black"/>
<path d="M54 42H51V45H54V42Z" fill="black"/>
<path d="M57 42H54V45H57V42Z" fill="black"/>
<path d="M60 42H57V45H60V42Z" fill="black"/>
<path d="M63 42H60V45H63V42Z" fill="black"/>
<path d="M66 42H63V45H66V42Z" fill="black"/>
<path d="M75 42H72V45H75V42Z" fill="black"/>
<path d="M78 42H75V45H78V42Z" fill="black"/>
<path d="M84 42H81V45H84V42Z" fill="black"/>
<path d="M90 42H87V45H90V42Z" fill="black"/>
<path d="M15 45H12V48H15V45Z" fill="black"/>
<path d="M21 45H18V48H21V45Z" fill="black"/>
<path d="M30 45H27V48H30V45Z" fill="black"/>
<path d="M33 45H30V48H33V45Z" fill="black"/>
<path d="M42 45H39V48H42V45Z" fill="black"/>
<path d="M48 45H45V48H48V45Z" fill="black"/>
<path d="M54 45H51V48H54V45Z" fill="black"/>
<path d="M60 45H57V48H60V45Z" fill="black"/>
<path d="M69 45H66V48H69V45Z" fill="black"/>
<path d="M72 45H69V48H72V45Z" fill="black"/>
<path d="M75 45H72V48H75V45Z" fill="black"/>
<path d="M84 45H81V48H84V45Z" fill="black"/>
<path d="M90 45H87V48H90V45Z" fill="black"/>
<path d="M93 45H90V48H93V45Z" fill="black"/>
<path d="M12 48H9V51H12V48Z" fill="black"/>
<path d="M15 48H12V51H15V48Z" fill="black"/>
<path d="M24 48H21V51H24V48Z" fill="black"/>
<path d="M27 48H24V51H27V48Z" fill="black"/>
<path d="M30 48H27V51H30V48Z" fill="black"/>
<path d="M33 48H30V51H33V48Z" fill="black"/>
<path d="M39 48H36V51H39V48Z" fill="black"/>
<path d="M42 48H39V51H42V48Z" fill="black"/>
<path d="M51 48H48V51H51V48Z" fill="black"/>
<path d="M72 48H69V51H72V48Z" fill="black"/>
<path d="M81 48H78V51H81V48Z" fill="black"/>
<path d="M84 48H81V51H84V48Z" fill="black"/>
<path d="M87 48H84V51H87V48Z" fill="black"/>
<path d="M90 48H87V51H90V48Z" fill="black"/>
<path d="M93 48H90V51H93V48Z" fill="black"/>
<path d="M9 51H6V54H9V51Z" fill="black"/>
<path d="M12 51H9V54H12V51Z" fill="black"/>
<path d="M15 51H12V54H15V51Z" fill="black"/>
<path d="M36 51H33V54H36V51Z" fill="black"/>
<path d="M39 51H36V54H39V51Z" fill="black"/>
<path d="M42 51H39V54H42V51Z" fill="black"/>
<path d="M54 51H51V54H54V51Z" fill="black"/>
<path d="M66 51H63V54H66V51Z" fill="black"/>
<path d="M69 51H66V54H69V51Z" fill="black"/>
<path d="M72 51H69V54H72V51Z" fill="black"/>
<path d="M81 51H78V54H81V51Z" fill="black"/>
<path d="M87 51H84V54H87V51Z" fill="black"/>
<path d="M93 51H90V54H93V51Z" fill="black"/>
<path d="M9 54H6V57H9V54Z" fill="black"/>
<path d="M18 54H15V57H18V54Z" fill="black"/>
<path d="M27 54H24V57H27V54Z" fill="black"/>
<path d="M33 54H30V57H33V54Z" fill="black"/>
<path d="M36 54H33V57H36V54Z" fill="black"/>
<path d="M45 54H42V57H45V54Z" fill="black"/>
<path d="M66 54H63V57H66V54Z" fill="black"/>
<path d="M75 54H72V57H75V54Z" fill="black"/>
<path d="M78 54H75V57H78V54Z" fill="black"/>
<path d="M84 54H81V57H84V54Z" fill="black"/>
<path d="M87 54H84V57H87V54Z" fill="black"/>
<path d="M90 54H87V57H90V54Z" fill="black"/>
<path d="M93 54H90V57H93V54Z" fill="black"/>
<path d="M18 57H15V60H18V57Z" fill="black"/>
<path d="M21 57H18V60H21V57Z" fill="black"/>
<path d="M30 57H27V60H30V57Z" fill="black"/>
<path d="M33 57H30V60H33V57Z" fill="black"/>
<path d="M36 57H33V60H36V57Z" fill="black"/>
<path d="M39 57H36V60H39V57Z" fill="black"/>
<path d="M45 57H42V60H45V57Z" fill="black"/>
<path d="M48 57H45V60H48V57Z" fill="black"/>
<path d="M51 57H48V60H51V57Z" fill="black"/>
<path d="M63 57H60V60H63V57Z" fill="black"/>
<path d="M66 57H63V60H66V57Z" fill="black"/>
<path d="M72 57H69V60H72V57Z" fill="black"/>
<path d="M78 57H75V60H78V57Z" fill="black"/>
<path d="M84 57H81V60H84V57Z" fill="black"/>
<path d="M93 57H90V60H93V57Z" fill="black"/>
<path d="M18 60H15V63H18V60Z" fill="black"/>
<path d="M21 60H18V63H21V60Z" fill="black"/>
<path d="M27 60H24V63H27V60Z" fill="black"/>
<path d="M45 60H42V63H45V60Z" fill="black"/>
<path d="M48 60H45V63H48V60Z" fill="black"/>
<path d="M54 60H51V63H54V60Z" fill="black"/>
<path d="M60 60H57V63H60V60Z" fill="black"/>
<path d="M63 60H60V63H63V60Z" fill="black"/>
<path d="M72 60H69V63H72V60Z" fill="black"/>
<path d="M75 60H72V63H75V60Z" fill="black"/>
<path d="M9 63H6V66H9V63Z" fill="black"/>
<path d="M15 63H12V66H15V63Z" fill="black"/>
<path d="M21 63H18V66H21V63Z" fill="black"/>
<path d="M24 63H21V66H24V63Z" fill="black"/>
<path d="M33 63H30V66H33V63Z" fill="black"/>
<path d="M36 63H33V66H36V63Z" fill="black"/>
<path d="M42 63H39V66H42V63Z" fill="black"/>
<path d="M45 63H42V66H45V63Z" fill="black"/>
<path d="M48 63H45V66H48V63Z" fill="black"/>
<path d="M51 63H48V66H51V63Z" fill="black"/>
<path d="M57 63H54V66H57V63Z" fill="black"/>
<path d="M69 63H66V66H69V63Z" fill="black"/>
<path d="M72 63H69V66H72V63Z" fill="black"/>
<path d="M75 63H72V66H75V63Z" fill="black"/>
<path d="M78 63H75V66H78V63Z" fill="black"/>
<path d="M84 63H81V66H84V63Z" fill="black"/>
<path d="M90 63H87V66H90V63Z" fill="black"/>
<path d="M12 66H9V69H12V66Z" fill="black"/>
<path d="M18 66H15V69H18V66Z" fill="black"/>
<path d="M21 66H18V69H21V66Z" fill="black"/>
<path d="M24 66H21V69H24V66Z" fill="black"/>
<path d="M27 66H24V69H27V66Z" fill="black"/>
<path d="M30 66H27V69H30V66Z" fill="black"/>
<path d="M33 66H30V69H33V66Z" fill="black"/>
<path d="M39 66H36V69H39V66Z" fill="black"/>
<path d="M45 66H42V69H45V66Z" fill="black"/>
<path d="M48 66H45V69H48V66Z" fill="black"/>
<path d="M51 66H48V69H51V66Z" fill="black"/>
<path d="M69 66H66V69H69V66Z" fill="black"/>
<path d="M72 66H69V69H72V66Z" fill="black"/>
<path d="M75 66H72V69H75V66Z" fill="black"/>
<path d="M78 66H75V69H78V66Z" fill="black"/>
<path d="M81 66H78V69H81V66Z" fill="black"/>
<path d="M90 66H87V69H90V66Z" fill="black"/>
<path d="M93 66H90V69H93V66Z" fill="black"/>
<path d="M36 69H33V72H36V69Z" fill="black"/>
<path d="M39 69H36V72H39V69Z" fill="black"/>
<path d="M42 69H39V72H42V69Z" fill="black"/>
<path d="M45 69H42V72H45V69Z" fill="black"/>
<path d="M51 69H48V72H51V69Z" fill="black"/>
<path d="M60 69H57V72H60V69Z" fill="black"/>
<path d="M66 69H63V72H66V69Z" fill="black"/>
<path d="M69 69H66V72H69V69Z" fill="black"/>
<path d="M81 69H78V72H81V69Z" fill="black"/>
<path d="M87 69H84V72H87V69Z" fill="black"/>
<path d="M93 69H90V72H93V69Z" fill="black"/>
<path d="M9 72H6V75H9V72Z" fill="black"/>
<path d="M12 72H9V75H12V72Z" fill="black"/>
<path d="M15 72H12V75H15V72Z" fill="black"/>
<path d="M18 72H15V75H18V72Z" fill="black"/>
<path d="M21 72H18V75H21V72Z" fill="black"/>
<path d="M24 72H21V75H24V72Z" fill="black"/>
<path d="M27 72H24V75H27V72Z" fill="black"/>
<path d="M33 72H30V75H33V72Z" fill="black"/>
<path d="M36 72H33V75H36V72Z" fill="black"/>
<path d="M42 72H39V75H42V72Z" fill="black"/>
<path d="M48 72H45V75H48V72Z" fill="black"/>
<path d="M54 72H51V75H54V72Z" fill="black"/>
<path d="M69 72H66V75H69V72Z" fill="black"/>
<path d="M75 72H72V75H75V72Z" fill="black"/>
<path d="M81 72H78V75H81V72Z" fill="black"/>
<path d="M9 75H6V78H9V75Z" fill="black"/>
<path d="M27 75H24V78H27V75Z" fill="black"/>
<path d="M36 75H33V78H36V75Z" fill="black"/>
<path d="M42 75H39V78H42V75Z" fill="black"/>
<path d="M54 75H51V78H54V75Z" fill="black"/>
<path d="M57 75H54V78H57V75Z" fill="black"/>
<path d="M63 75H60V78H63V75Z" fill="black"/>
<path d="M66 75H63V78H66V75Z" fill="black"/>
<path d="M69 75H66V78H69V75Z" fill="black"/>
<path d="M81 75H78V78H81V75Z" fill="black"/>
<path d="M84 75H81V78H84V75Z" fill="black"/>
<path d="M87 75H84V78H87V75Z" fill="black"/>
<path d="M90 75H87V78H90V75Z" fill="black"/>
<path d="M9 78H6V81H9V78Z" fill="black"/>
<path d="M15 78H12V81H15V78Z" fill="black"/>
<path d="M18 78H15V81H18V78Z" fill="black"/>
<path d="M21 78H18V81H21V78Z" fill="black"/>
<path d="M27 78H24V81H27V78Z" fill="black"/>
<path d="M36 78H33V81H36V78Z" fill="black"/>
<path d="M42 78H39V81H42V78Z" fill="black"/>
<path d="M51 78H48V81H51V78Z" fill="black"/>
<path d="M57 78H54V81H57V78Z" fill="black"/>
<path d="M63 78H60V81H63V78Z" fill="black"/>
<path d="M69 78H66V81H69V78Z" fill="black"/>
<path d="M72 78H69V81H72V78Z" fill="black"/>
<path d="M75 78H72V81H75V78Z" fill="black"/>
<path d="M78 78H75V81H78V78Z" fill="black"/>
<path d="M81 78H78V81H81V78Z" fill="black"/>
<path d="M84 78H81V81H84V78Z" fill="black"/>
<path d="M9 81H6V84H9V81Z" fill="black"/>
<path d="M15 81H12V84H15V81Z" fill="black"/>
<path d="M18 81H15V84H18V81Z" fill="black"/>
<path d="M21 81H18V84H21V81Z" fill="black"/>
<path d="M27 81H24V84H27V81Z" fill="black"/>
<path d="M33 81H30V84H33V81Z" fill="black"/>
<path d="M45 81H42V84H45V81Z" fill="black"/>
<path d="M57 81H54V84H57V81Z" fill="black"/>
<path d="M60 81H57V84H60V81Z" fill="black"/>
<path d="M69 81H66V84H69V81Z" fill="black"/>
<path d="M72 81H69V84H72V81Z" fill="black"/>
<path d="M75 81H72V84H75V81Z" fill="black"/>
<path d="M78 81H75V84H78V81Z" fill="black"/>
<path d="M84 81H81V84H84V81Z" fill="black"/>
<path d="M90 81H87V84H90V81Z" fill="black"/>
<path d="M93 81H90V84H93V81Z" fill="black"/>
<path d="M9 84H6V87H9V84Z" fill="black"/>
<path d="M15 84H12V87H15V84Z" fill="black"/>
<path d="M18 84H15V87H18V84Z" fill="black"/>
<path d="M21 84H18V87H21V84Z" fill="black"/>
<path d="M27 84H24V87H27V84Z" fill="black"/>
<path d="M39 84H36V87H39V84Z" fill="black"/>
<path d="M45 84H42V87H45V84Z" fill="black"/>
<path d="M48 84H45V87H48V84Z" fill="black"/>
<path d="M51 84H48V87H51V84Z" fill="black"/>
<path d="M60 84H57V87H60V84Z" fill="black"/>
<path d="M63 84H60V87H63V84Z" fill="black"/>
<path d="M66 84H63V87H66V84Z" fill="black"/>
<path d="M69 84H66V87H69V84Z" fill="black"/>
<path d="M72 84H69V87H72V84Z" fill="black"/>
<path d="M81 84H78V87H81V84Z" fill="black"/>
<path d="M87 84H84V87H87V84Z" fill="black"/>
<path d="M9 87H6V90H9V87Z" fill="black"/>
<path d="M27 87H24V90H27V87Z" fill="black"/>
<path d="M33 87H30V90H33V87Z" fill="black"/>
<path d="M39 87H36V90H39V87Z" fill="black"/>
<path d="M48 87H45V90H48V87Z" fill="black"/>
<path d="M51 87H48V90H51V87Z" fill="black"/>
<path d="M54 87H51V90H54V87Z" fill="black"/>
<path d="M57 87H54V90H57V87Z" fill="black"/>
<path d="M60 87H57V90H60V87Z" fill="black"/>
<path d="M72 87H69V90H72V87Z" fill="black"/>
<path d="M75 87H72V90H75V87Z" fill="black"/>
<path d="M78 87H75V90H78V87Z" fill="black"/>
<path d="M81 87H78V90H81V87Z" fill="black"/>
<path d="M84 87H81V90H84V87Z" fill="black"/>
<path d="M90 87H87V90H90V87Z" fill="black"/>
<path d="M93 87H90V90H93V87Z" fill="black"/>
<path d="M9 90H6V93H9V90Z" fill="black"/>
<path d="M12 90H9V93H12V90Z" fill="black"/>
<path d="M15 90H12V93H15V90Z" fill="black"/>
<path d="M18 90H15V93H18V90Z" fill="black"/>
<path d="M21 90H18V93H21V90Z" fill="black"/>
<path d="M24 90H21V93H24V90Z" fill="black"/>
<path d="M27 90H24V93H27V90Z" fill="black"/>
<path d="M33 90H30V93H33V90Z" fill="black"/>
<path d="M36 90H33V93H36V90Z" fill="black"/>
<path d="M42 90H39V93H42V90Z" fill="black"/>
<path d="M48 90H45V93H48V90Z" fill="black"/>
<path d="M51 90H48V93H51V90Z" fill="black"/>
<path d="M72 90H69V93H72V90Z" fill="black"/>
<path d="M81 90H78V93H81V90Z" fill="black"/>
<path d="M87 90H84V93H87V90Z" fill="black"/>
</g>
</g>
<defs>
<clipPath id="clip0_18_608">
<rect width="99" height="99" fill="white"/>
</clipPath>
</defs>
</svg>
